<svg width="179" height="46" viewBox="0 0 179 46" fill="none" xmlns="http://www.w3.org/2000/svg">
<g clip-path="url(#clip0_36_126)">
<path d="M14.2839 12.6796C15.4499 13.1219 16.3245 13.7116 17.0532 14.4488C17.782 15.186 18.365 16.0706 18.6565 16.9552C19.0938 17.8398 19.2395 18.8719 19.2395 19.7565H14.7212C14.7212 18.7245 14.2839 17.8398 13.5551 17.1027C12.8264 16.6604 11.6603 16.3655 10.2028 16.3655C9.61977 16.3655 9.03676 16.3655 8.45374 16.5129C7.87072 16.6604 7.43346 16.8078 6.9962 17.1027C6.55894 17.3975 6.26743 17.6924 5.97592 17.9873C5.68441 18.2822 5.53866 18.7245 5.53866 19.1668C5.53866 20.0514 5.97592 20.6411 6.85044 21.0834C7.72497 21.5257 9.03676 21.8206 10.9316 22.2629C12.3891 22.5578 13.7009 22.8527 14.7212 23.1475C15.8872 23.4424 16.7617 24.0322 17.6362 24.4745C18.365 25.0642 19.0938 25.8014 19.5311 26.5386C19.9683 27.4232 20.1141 28.4552 20.1141 29.6347C20.1141 30.8142 19.8226 31.8463 19.3853 32.7309C18.948 33.6155 18.2193 34.5001 17.3447 35.0898C16.4702 35.6796 15.4499 36.2693 14.2839 36.5642C13.1179 37.0065 11.8061 37.1539 10.2028 37.1539C9.03676 37.1539 7.87072 37.0065 6.70469 36.5642C5.53866 36.2693 4.51838 35.6796 3.4981 34.9424C2.62358 34.2052 1.74905 33.3206 1.31179 32.2886C0.728772 31.2565 0.437263 29.9296 0.437263 28.4552H4.95564C4.95564 29.1924 5.1014 29.7822 5.3929 30.3719C5.68441 30.9616 6.12167 31.4039 6.70469 31.6988C7.28771 32.2886 7.87072 32.436 8.45374 32.7309C9.03676 32.8783 9.61977 33.0257 10.3485 33.0257C10.9316 33.0257 11.6603 33.0257 12.2433 32.8783C12.8264 32.7309 13.4094 32.5834 13.9924 32.2886C14.4297 31.9937 14.8669 31.6988 15.1584 31.2565C15.4499 30.8142 15.5957 30.3719 15.5957 29.7822C15.5957 29.4873 15.4499 29.045 15.3042 28.7501C15.1584 28.4552 14.8669 28.1604 14.4297 27.8655C13.9924 27.5706 13.4094 27.2757 12.6806 27.1283C11.9518 26.8334 11.0773 26.686 9.91128 26.5386C8.74525 26.3911 7.72497 26.0963 6.70469 25.8014C5.68441 25.5065 4.66413 25.0642 3.93536 24.4745C3.06084 23.8847 2.47782 23.295 1.8948 22.4104C1.31179 21.5257 1.16603 20.4937 1.16603 19.1668C1.16603 18.1347 1.31179 17.1027 1.74905 16.3655C2.18631 15.4809 2.76933 14.7437 3.64385 14.1539C4.51838 13.5642 5.3929 13.1219 6.55894 12.6796C7.57921 12.2373 8.891 12.0898 10.2028 12.0898C11.8061 12.0898 13.2636 12.2373 14.2839 12.6796Z" fill="black"/>
<path d="M27.5475 19.0195H23.0292V37.0067H27.5475V19.0195Z" fill="black"/>
<path d="M48.2446 35.9746C48.2446 37.449 48.0989 38.7759 47.6616 39.9554C47.2243 41.1349 46.6413 42.1669 45.7668 43.0516C45.038 43.9362 44.0177 44.5259 42.8517 44.9682C41.6857 45.4105 40.3739 45.7054 39.0621 45.7054C38.0418 45.7054 37.0215 45.558 36.0013 45.2631C34.981 44.9682 34.1065 44.5259 33.3777 43.9362C32.6489 43.3464 31.9202 42.7567 31.4829 42.0195C30.8999 41.2823 30.6084 40.3977 30.4626 39.5131H35.4182C35.564 39.808 35.7098 40.1028 36.0013 40.3977C36.2928 40.6926 36.5843 40.84 36.8758 40.9875C37.1673 41.1349 37.6046 41.2823 37.8961 41.2823C38.1876 41.2823 38.6248 41.4298 38.9163 41.4298C40.5196 41.4298 41.6857 40.9875 42.4144 39.9554C43.1432 38.9234 43.5805 37.7439 43.5805 36.1221V35.2375C42.8517 35.9746 42.1229 36.4169 41.2484 36.8592C40.3739 37.1541 39.3536 37.449 38.3333 37.449C37.1673 37.449 36.147 37.1541 35.1267 36.7118C34.1065 36.2695 33.2319 35.5323 32.5032 34.7951C31.7744 33.9105 31.1914 33.0259 30.6084 31.8464C30.1711 30.6669 29.8796 29.4875 29.8796 28.1605C29.8796 26.8336 30.1711 25.6541 30.6084 24.4746C31.0456 23.2951 31.6286 22.2631 32.5032 21.5259C33.2319 20.6413 34.1065 20.0516 35.1267 19.6092C36.147 19.1669 37.1673 18.8721 38.3333 18.8721C39.4994 18.8721 40.3739 19.0195 41.3942 19.4618C42.2687 19.9041 43.1432 20.4939 43.872 21.231V19.3144H48.2446V35.9746ZM43.289 25.949C42.9975 25.3592 42.706 24.7695 42.2687 24.3272C41.8314 23.8849 41.3942 23.4426 40.8112 23.2951C40.2281 23.0003 39.6451 22.8528 39.0621 22.8528C38.4791 22.8528 37.8961 23.0003 37.3131 23.2951C36.73 23.59 36.2928 23.8849 35.8555 24.3272C35.4183 24.7695 35.1267 25.3592 34.8352 25.949C34.5437 26.5387 34.5437 27.2759 34.5437 28.0131C34.5437 28.7503 34.6895 29.34 34.8352 30.0772C35.1267 30.6669 35.4183 31.2567 35.8555 31.699C36.2928 32.1413 36.73 32.4362 37.3131 32.731C37.8961 33.0259 38.4791 33.1734 39.0621 33.1734C39.6451 33.1734 40.2281 33.0259 40.8112 32.731C41.3942 32.4362 41.8314 32.1413 42.2687 31.699C42.706 31.2567 42.9975 30.6669 43.289 30.0772C43.5805 29.4875 43.5805 28.7503 43.5805 28.1605C43.7262 27.2759 43.5805 26.6862 43.289 25.949Z" fill="black"/>
<path d="M67.4842 37.0066H62.9658V26.5387C62.9658 26.2438 62.9658 25.9489 62.82 25.5066C62.82 25.0643 62.6743 24.7695 62.3828 24.3271C62.237 23.8848 61.7997 23.59 61.3625 23.2951C60.9252 23.0002 60.3422 22.8528 59.6134 22.8528C58.5932 22.8528 57.7186 23.1477 57.1356 23.8848C56.5526 24.622 56.1153 25.3592 56.1153 26.3913V36.8592H51.597V19.0195H55.9696V20.7887C56.5526 20.0515 57.2814 19.6092 58.0101 19.1669C58.7389 18.7246 59.6134 18.5771 60.6337 18.5771C61.654 18.5771 62.6743 18.7246 63.403 19.1669C64.2776 19.6092 65.0063 20.0515 65.5894 20.7887C66.1724 21.5259 66.6096 22.263 67.0469 23.2951C67.3384 24.3271 67.4842 25.3592 67.4842 26.5387V37.0066Z" fill="black"/>
<path d="M75.2091 19.0195H70.6908V37.0067H75.2091V19.0195Z" fill="black"/>
<path d="M87.3067 19.0195V23.1477H84.1001V37.0066H79.5818V23.1477H77.3954V19.0195H79.5818C79.5818 17.84 79.7275 16.8079 80.1648 15.7759C80.4563 14.7438 81.0393 14.0066 81.7681 13.2695C82.4968 12.5323 83.2256 12.09 84.2459 11.7951C85.2662 11.5002 86.2864 11.3528 87.5982 11.5002V15.7759C86.4322 15.6284 85.7034 15.9233 85.1204 16.3656C84.5374 16.8079 84.2459 17.6925 84.2459 19.0195H87.3067Z" fill="black"/>
<path d="M94.4487 37.0064H89.9303V11.3525H94.4487V37.0064Z" fill="black"/>
<path d="M106.692 40.2503C106.255 41.4298 105.817 42.3144 105.234 43.0516C104.651 43.7888 104.068 44.2311 103.34 44.6734C102.611 44.9682 101.882 45.2631 101.153 45.2631C100.279 45.4106 99.4043 45.4106 98.5298 45.2631V41.1349C99.1128 41.1349 99.5501 41.1349 99.9873 41.1349C100.425 41.1349 100.716 40.9875 101.153 40.6926C101.445 40.5452 101.736 40.2503 102.028 39.9554C102.319 39.6606 102.465 39.2183 102.611 38.6285L103.194 37.3016L96.3435 19.0195H101.153L105.526 31.9939L109.753 19.0195H114.563L106.692 40.2503Z" fill="black"/>
<path d="M73.0228 5.89754C74.4718 5.89754 75.6464 4.70937 75.6464 3.24369C75.6464 1.77801 74.4718 0.589844 73.0228 0.589844C71.5738 0.589844 70.3992 1.77801 70.3992 3.24369C70.3992 4.70937 71.5738 5.89754 73.0228 5.89754Z" fill="black"/>
</g>
<path d="M119.552 25.3715C119.552 25.2221 119.616 25.1475 119.744 25.1475H126.784C126.891 25.1475 126.944 25.2061 126.944 25.3235V26.1395C126.944 26.2675 126.875 26.3315 126.736 26.3315H121.296C121.157 26.3315 121.088 26.3955 121.088 26.5235V30.4595C121.088 30.5768 121.147 30.6355 121.264 30.6355H125.536C125.653 30.6355 125.712 30.6888 125.712 30.7955V31.6435C125.712 31.7395 125.653 31.7875 125.536 31.7875H121.264C121.147 31.7875 121.088 31.8461 121.088 31.9635V36.8115C121.088 36.9501 121.013 37.0195 120.864 37.0195H119.776C119.691 37.0195 119.632 37.0035 119.6 36.9715C119.568 36.9395 119.552 36.8808 119.552 36.7955V25.3715Z" fill="black"/>
<path d="M131.143 37.1795C130.343 37.1795 129.634 36.9981 129.015 36.6355C128.407 36.2621 127.933 35.7501 127.591 35.0995C127.261 34.4381 127.095 33.6808 127.095 32.8275C127.095 31.9421 127.266 31.1688 127.607 30.5075C127.959 29.8355 128.439 29.3128 129.047 28.9395C129.655 28.5661 130.359 28.3795 131.159 28.3795C131.97 28.3795 132.674 28.5715 133.271 28.9555C133.879 29.3288 134.349 29.8515 134.679 30.5235C135.021 31.1848 135.191 31.9475 135.191 32.8115C135.191 33.6648 135.021 34.4221 134.679 35.0835C134.338 35.7341 133.863 36.2461 133.255 36.6195C132.658 36.9928 131.954 37.1795 131.143 37.1795ZM131.175 36.1715C131.73 36.1715 132.205 36.0381 132.599 35.7715C132.994 35.4941 133.293 35.1048 133.495 34.6035C133.709 34.0915 133.815 33.4835 133.815 32.7795C133.815 32.0755 133.709 31.4728 133.495 30.9715C133.282 30.4595 132.978 30.0648 132.583 29.7875C132.189 29.5101 131.714 29.3715 131.159 29.3715C130.615 29.3715 130.141 29.5101 129.735 29.7875C129.33 30.0648 129.015 30.4595 128.791 30.9715C128.578 31.4728 128.471 32.0755 128.471 32.7795C128.471 33.4728 128.578 34.0755 128.791 34.5875C129.015 35.0995 129.33 35.4941 129.735 35.7715C130.141 36.0381 130.621 36.1715 131.175 36.1715Z" fill="black"/>
<path d="M140.722 37.1795C139.922 37.1795 139.212 36.9981 138.594 36.6355C137.986 36.2621 137.511 35.7501 137.17 35.0995C136.839 34.4381 136.674 33.6808 136.674 32.8275C136.674 31.9421 136.844 31.1688 137.186 30.5075C137.538 29.8355 138.018 29.3128 138.626 28.9395C139.234 28.5661 139.938 28.3795 140.738 28.3795C141.548 28.3795 142.252 28.5715 142.85 28.9555C143.458 29.3288 143.927 29.8515 144.258 30.5235C144.599 31.1848 144.77 31.9475 144.77 32.8115C144.77 33.6648 144.599 34.4221 144.258 35.0835C143.916 35.7341 143.442 36.2461 142.834 36.6195C142.236 36.9928 141.532 37.1795 140.722 37.1795ZM140.754 36.1715C141.308 36.1715 141.783 36.0381 142.178 35.7715C142.572 35.4941 142.871 35.1048 143.074 34.6035C143.287 34.0915 143.394 33.4835 143.394 32.7795C143.394 32.0755 143.287 31.4728 143.074 30.9715C142.86 30.4595 142.556 30.0648 142.162 29.7875C141.767 29.5101 141.292 29.3715 140.738 29.3715C140.194 29.3715 139.719 29.5101 139.314 29.7875C138.908 30.0648 138.594 30.4595 138.37 30.9715C138.156 31.4728 138.05 32.0755 138.05 32.7795C138.05 33.4728 138.156 34.0755 138.37 34.5875C138.594 35.0995 138.908 35.4941 139.314 35.7715C139.719 36.0381 140.199 36.1715 140.754 36.1715Z" fill="black"/>
<path d="M151.836 30.4115C151.622 30.0915 151.324 29.8301 150.94 29.6275C150.556 29.4248 150.097 29.3235 149.564 29.3235C148.988 29.3235 148.508 29.4461 148.124 29.6915C147.75 29.9368 147.564 30.2675 147.564 30.6835C147.564 30.9075 147.649 31.1208 147.82 31.3235C147.99 31.5155 148.337 31.6968 148.86 31.8675L150.892 32.4755C151.628 32.6781 152.156 32.9715 152.476 33.3555C152.806 33.7395 152.972 34.1821 152.972 34.6835C152.972 35.1848 152.822 35.6221 152.524 35.9955C152.225 36.3688 151.814 36.6621 151.292 36.8755C150.769 37.0781 150.177 37.1795 149.516 37.1795C148.673 37.1795 147.937 37.0141 147.308 36.6835C146.678 36.3421 146.23 35.9208 145.964 35.4195C145.932 35.3661 145.916 35.3181 145.916 35.2755C145.916 35.2328 145.942 35.1955 145.996 35.1635L146.62 34.8115C146.673 34.7795 146.721 34.7688 146.764 34.7795C146.806 34.7795 146.838 34.7955 146.86 34.8275C147.041 35.1048 147.249 35.3448 147.484 35.5475C147.729 35.7501 148.017 35.9101 148.348 36.0275C148.689 36.1448 149.084 36.2035 149.532 36.2035C149.937 36.1928 150.305 36.1341 150.636 36.0275C150.966 35.9208 151.228 35.7661 151.42 35.5635C151.612 35.3501 151.708 35.1048 151.708 34.8275C151.708 34.5395 151.59 34.2941 151.356 34.0915C151.121 33.8781 150.716 33.6915 150.14 33.5315L148.492 33.0675C147.692 32.8541 147.126 32.5661 146.796 32.2035C146.476 31.8408 146.31 31.4141 146.3 30.9235C146.3 30.4115 146.438 29.9688 146.716 29.5955C146.993 29.2115 147.377 28.9128 147.868 28.6995C148.369 28.4861 148.94 28.3795 149.58 28.3795C150.294 28.3795 150.929 28.5181 151.484 28.7955C152.049 29.0621 152.476 29.4195 152.764 29.8675C152.796 29.9101 152.812 29.9528 152.812 29.9955C152.812 30.0275 152.79 30.0595 152.748 30.0915L152.076 30.4595C152.033 30.4808 151.99 30.4915 151.948 30.4915C151.916 30.4808 151.878 30.4541 151.836 30.4115Z" fill="black"/>
<path d="M155.191 37.0195C155.095 37.0195 155.026 36.9981 154.983 36.9555C154.951 36.9128 154.935 36.8488 154.935 36.7635V25.3715C154.935 25.2221 154.999 25.1475 155.127 25.1475H156.119C156.226 25.1475 156.279 25.2221 156.279 25.3715V29.2915C156.279 29.4088 156.3 29.4728 156.343 29.4835C156.386 29.4835 156.444 29.4515 156.519 29.3875C156.615 29.2915 156.77 29.1635 156.983 29.0035C157.207 28.8435 157.49 28.6995 157.831 28.5715C158.183 28.4435 158.599 28.3795 159.079 28.3795C159.858 28.3795 160.498 28.5715 160.999 28.9555C161.5 29.3395 161.874 29.8621 162.119 30.5235C162.375 31.1741 162.503 31.9101 162.503 32.7315C162.503 34.0968 162.183 35.1795 161.543 35.9795C160.903 36.7795 160.007 37.1795 158.855 37.1795C158.364 37.1795 157.943 37.1048 157.591 36.9555C157.25 36.8061 156.967 36.6301 156.743 36.4275C156.519 36.2248 156.354 36.0541 156.247 35.9155C156.204 35.8621 156.167 35.8408 156.135 35.8515C156.103 35.8621 156.082 35.8995 156.071 35.9635L155.991 36.7635C155.97 36.9341 155.874 37.0195 155.703 37.0195H155.191ZM156.279 34.1555C156.279 34.5395 156.386 34.8915 156.599 35.2115C156.823 35.5208 157.111 35.7661 157.463 35.9475C157.815 36.1288 158.183 36.2195 158.567 36.2195C159.047 36.2195 159.479 36.1021 159.863 35.8675C160.247 35.6221 160.551 35.2435 160.775 34.7315C160.999 34.2195 161.111 33.5635 161.111 32.7635C161.111 31.6755 160.903 30.8381 160.487 30.2515C160.071 29.6541 159.468 29.3555 158.679 29.3555C158.178 29.3555 157.719 29.4728 157.303 29.7075C156.898 29.9315 156.556 30.2088 156.279 30.5395V34.1555Z" fill="black"/>
<path d="M169.393 35.9955C168.999 36.3795 168.567 36.6728 168.097 36.8755C167.639 37.0781 167.121 37.1795 166.545 37.1795C165.713 37.1795 165.057 36.9661 164.577 36.5395C164.108 36.1128 163.873 35.5528 163.873 34.8595C163.873 34.2941 164.033 33.8088 164.353 33.4035C164.673 32.9875 165.148 32.6621 165.777 32.4275C166.407 32.1821 167.18 32.0328 168.097 31.9795L169.345 31.8835C169.409 31.8728 169.468 31.8515 169.521 31.8195C169.575 31.7875 169.601 31.7288 169.601 31.6435V31.2115C169.601 30.6355 169.42 30.1821 169.057 29.8515C168.705 29.5101 168.225 29.3395 167.617 29.3395C167.148 29.3395 166.721 29.4461 166.337 29.6595C165.964 29.8728 165.628 30.1928 165.329 30.6195C165.287 30.6728 165.249 30.7101 165.217 30.7315C165.196 30.7421 165.153 30.7368 165.089 30.7155L164.225 30.4275C164.193 30.4061 164.167 30.3795 164.145 30.3475C164.135 30.3155 164.151 30.2568 164.193 30.1715C164.513 29.6168 164.961 29.1795 165.537 28.8595C166.124 28.5395 166.839 28.3795 167.681 28.3795C168.396 28.3795 168.988 28.4915 169.457 28.7155C169.937 28.9288 170.295 29.2435 170.529 29.6595C170.775 30.0648 170.897 30.5501 170.897 31.1155V36.7795C170.897 36.8755 170.881 36.9395 170.849 36.9715C170.817 37.0035 170.764 37.0195 170.689 37.0195H169.873C169.799 37.0195 169.745 36.9981 169.713 36.9555C169.681 36.9021 169.66 36.8381 169.649 36.7635L169.633 36.0275C169.601 35.8781 169.521 35.8675 169.393 35.9955ZM169.601 32.9555C169.601 32.7741 169.527 32.6888 169.377 32.6995L168.321 32.7955C167.831 32.8168 167.393 32.8808 167.009 32.9875C166.625 33.0835 166.3 33.2115 166.033 33.3715C165.767 33.5315 165.564 33.7235 165.425 33.9475C165.287 34.1608 165.217 34.4115 165.217 34.6995C165.217 35.1688 165.377 35.5368 165.697 35.8035C166.028 36.0595 166.471 36.1875 167.025 36.1875C167.367 36.1875 167.692 36.1288 168.001 36.0115C168.321 35.8835 168.599 35.7235 168.833 35.5315C169.079 35.3288 169.265 35.1208 169.393 34.9075C169.532 34.6941 169.601 34.4861 169.601 34.2835V32.9555Z" fill="black"/>
<path d="M174.639 36.7475C174.639 36.8541 174.618 36.9288 174.575 36.9715C174.532 37.0035 174.458 37.0195 174.351 37.0195H173.519C173.359 37.0195 173.279 36.9448 173.279 36.7955L173.295 25.3715C173.295 25.2221 173.359 25.1475 173.487 25.1475H174.447C174.575 25.1475 174.639 25.2168 174.639 25.3555V36.7475Z" fill="black"/>
<path d="M178.467 36.7475C178.467 36.8541 178.446 36.9288 178.403 36.9715C178.36 37.0035 178.286 37.0195 178.179 37.0195H177.347C177.187 37.0195 177.107 36.9448 177.107 36.7955L177.123 25.3715C177.123 25.2221 177.187 25.1475 177.315 25.1475H178.275C178.403 25.1475 178.467 25.2168 178.467 25.3555V36.7475Z" fill="black"/>
<defs>
<clipPath id="clip0_36_126">
<rect width="115" height="46" fill="white"/>
</clipPath>
</defs>
</svg>
